<svg width="33" height="32" viewBox="0 0 33 32" fill="none" xmlns="http://www.w3.org/2000/svg">
<g id="ph:coffee">
<path id="Vector" d="M10.5 7V3C10.5 2.73478 10.6054 2.48043 10.7929 2.29289C10.9804 2.10536 11.2348 2 11.5 2C11.7652 2 12.0196 2.10536 12.2071 2.29289C12.3946 2.48043 12.5 2.73478 12.5 3V7C12.5 7.26522 12.3946 7.51957 12.2071 7.70711C12.0196 7.89464 11.7652 8 11.5 8C11.2348 8 10.9804 7.89464 10.7929 7.70711C10.6054 7.51957 10.5 7.26522 10.5 7ZM15.5 8C15.7652 8 16.0196 7.89464 16.2071 7.70711C16.3946 7.51957 16.5 7.26522 16.5 7V3C16.5 2.73478 16.3946 2.48043 16.2071 2.29289C16.0196 2.10536 15.7652 2 15.5 2C15.2348 2 14.9804 2.10536 14.7929 2.29289C14.6054 2.48043 14.5 2.73478 14.5 3V7C14.5 7.26522 14.6054 7.51957 14.7929 7.70711C14.9804 7.89464 15.2348 8 15.5 8ZM19.5 8C19.7652 8 20.0196 7.89464 20.2071 7.70711C20.3946 7.51957 20.5 7.26522 20.5 7V3C20.5 2.73478 20.3946 2.48043 20.2071 2.29289C20.0196 2.10536 19.7652 2 19.5 2C19.2348 2 18.9804 2.10536 18.7929 2.29289C18.6054 2.48043 18.5 2.73478 18.5 3V7C18.5 7.26522 18.6054 7.51957 18.7929 7.70711C18.9804 7.89464 19.2348 8 19.5 8ZM31.5 15V16C31.4993 17.2715 31.0142 18.495 30.1434 19.4215C29.2726 20.3481 28.0815 20.908 26.8125 20.9875C26.1237 22.9139 24.9634 24.6372 23.4375 26H26.5C26.7652 26 27.0196 26.1054 27.2071 26.2929C27.3946 26.4804 27.5 26.7348 27.5 27C27.5 27.2652 27.3946 27.5196 27.2071 27.7071C27.0196 27.8946 26.7652 28 26.5 28H4.5C4.23478 28 3.98043 27.8946 3.79289 27.7071C3.60536 27.5196 3.5 27.2652 3.5 27C3.5 26.7348 3.60536 26.4804 3.79289 26.2929C3.98043 26.1054 4.23478 26 4.5 26H7.5625C6.28816 24.8718 5.26726 23.4865 4.56704 21.9352C3.86682 20.384 3.50316 18.702 3.5 17V11C3.5 10.7348 3.60536 10.4804 3.79289 10.2929C3.98043 10.1054 4.23478 10 4.5 10H26.5C27.8261 10 29.0979 10.5268 30.0355 11.4645C30.9732 12.4021 31.5 13.6739 31.5 15ZM25.5 12H5.5V17C5.50406 18.8772 6.03448 20.7157 7.03101 22.3066C8.02753 23.8975 9.45023 25.1771 11.1375 26H19.8625C21.1229 25.384 22.2402 24.5107 23.1423 23.4364C24.0445 22.362 24.7114 21.1105 25.1 19.7625C25.1139 19.7397 25.1225 19.7141 25.125 19.6875C25.3763 18.8139 25.5025 17.909 25.5 17V12ZM29.5 15C29.4993 14.3802 29.3066 13.7758 28.9485 13.27C28.5904 12.7641 28.0844 12.3816 27.5 12.175V17C27.5008 17.628 27.4506 18.2551 27.35 18.875C27.9705 18.6917 28.515 18.3127 28.9025 17.7946C29.29 17.2765 29.4996 16.647 29.5 16V15Z" fill="#14401D"/>
</g>
</svg>
