<svg width="32" height="32" viewBox="0 0 32 32" fill="none" xmlns="http://www.w3.org/2000/svg">
<g id="ph:fast-forward-fill">
<path id="Vector" d="M31.65 16.0001C31.6515 16.3353 31.5688 16.6656 31.4093 16.9604C31.2499 17.2553 31.0189 17.5054 30.7375 17.6876L19.5875 24.8501C19.2849 25.0462 18.935 25.1568 18.5747 25.1703C18.2144 25.1837 17.8572 25.0995 17.5408 24.9266C17.2244 24.7537 16.9607 24.4985 16.7775 24.188C16.5943 23.8774 16.4984 23.5232 16.5 23.1626V17.8376L5.58752 24.8501C5.28494 25.0462 4.93499 25.1568 4.5747 25.1703C4.21441 25.1837 3.85717 25.0995 3.5408 24.9266C3.22443 24.7537 2.96069 24.4985 2.77747 24.188C2.59426 23.8774 2.49839 23.5232 2.50002 23.1626V8.83763C2.49839 8.47709 2.59426 8.12282 2.77747 7.8123C2.96069 7.50177 3.22443 7.24655 3.5408 7.07364C3.85717 6.90072 4.21441 6.81654 4.5747 6.83001C4.93499 6.84347 5.28494 6.95408 5.58752 7.15013L16.5 14.1626V8.83763C16.4984 8.47709 16.5943 8.12282 16.7775 7.8123C16.9607 7.50177 17.2244 7.24655 17.5408 7.07364C17.8572 6.90072 18.2144 6.81654 18.5747 6.83001C18.935 6.84347 19.2849 6.95408 19.5875 7.15013L30.7375 14.3126C31.0189 14.4949 31.2499 14.745 31.4093 15.0398C31.5688 15.3347 31.6515 15.6649 31.65 16.0001Z" fill="#14401D"/>
</g>
</svg>
