<svg width="32" height="32" viewBox="0 0 32 32" fill="none" xmlns="http://www.w3.org/2000/svg">
<g id="ph:play-fill">
<path id="Vector" d="M30 16C29.9993 16.3439 29.9104 16.6818 29.7419 16.9816C29.5734 17.2814 29.3309 17.533 29.0375 17.7125L11.0375 28.7C10.7377 28.89 10.3914 28.9939 10.0365 29.0006C9.68161 29.0072 9.33171 28.9162 9.02501 28.7375C8.71377 28.5667 8.45432 28.3152 8.27394 28.0095C8.09356 27.7037 7.99893 27.355 8.00001 27V4.99996C7.99893 4.64496 8.09356 4.29623 8.27394 3.99047C8.45432 3.68471 8.71377 3.43322 9.02501 3.26246C9.33171 3.08376 9.68161 2.99275 10.0365 2.99936C10.3914 3.00597 10.7377 3.10996 11.0375 3.29996L29.0375 14.2875C29.3309 14.4669 29.5734 14.7185 29.7419 15.0183C29.9104 15.3181 29.9993 15.6561 30 16Z" fill="#14401D"/>
</g>
</svg>
